<svg xmlns="http://www.w3.org/2000/svg" viewBox="0 0 511 512">
<g>
  <path d="M255.4 1.4
C115 1.4 1 115.6 1 256.4
c0 140.2 114 254.3 254.6 254.3S510 396.7 510 256.3
c0-140.7-114-255-254.4-255zm0 14.2
c132.8 0 240.4 108 240.4 240.8 0 132.5-107.6 240-240.3 240
C123 496.5 15 389 15 256.5
c0-133.2 108-241 240.5-241zm-79.5 39L241 257h28.2L334 54.4h-39.4l-39.4 135-39-135H176zM74.6 154v199.8h62.7
c50.7 0 76.4-61.4 41-99.5v-.2l.4-.2
c29.2-33.2 17-91.5-37.5-99.7H74.7zm259.3 0v199.8h63
c50.7 0 76.4-61.4 41.2-99.5v-.2l.2-.2
c29.3-33.2 17-91.5-37.5-99.7h-67zm-222.7 37.2h31
c20 0 24 38.4 1 44.5h-32v-44.4zm260 0h30.4
c20 0 24.2 38.4 1.3 44.5h-31.6v-44.4zm-260 80.5h27
c22.8 0 31 41 1.6 46.8H111v-46.8zm259.8 0h27
c22.5 0 30.8 41 1.5 46.8h-28.3v-46.8zM216 358
c-16 0-29.2 13.2-29.2 29.4v44.2
c0 16 13 29.3 29.2 29.3h.7
c16.2 0 29.3-13.3 29.3-29.4v-44.3
c0-16.2-13-29.4-29.3-29.4h-.7zm78 0
c-16.3 0-30.2 12.6-30.2 28.8v7
c0 16.3 15 29.4 30.2 29.8 0 0 6 0 9.3-2l.4 10.2
c0 5-4 9.5-9 9.4-4.3 0-10-2.3-10-7.3 0 0 1-6.8-3.8-6.8h-17v5
c0 15.2 13.2 28.7 31 28.7 16.7-.3 28.4-13.2 28.4-30v-44
c0-16.2-12.6-29-28.7-29h-.6zm.2 21
c5.3 0 9.3 3.8 9.3 9v5.8
c0 5-4 9.2-9 9.2-5.5 0-10-4-10-9.2V388
c0-5 4.5-9 9.6-9zm-78.3.2
c5.4 0 9.8 4 9.8 9.2v43.8
c0 5.2-4.4 9.2-9.5 9.2-5.3 0-9.3-4-9.3-9v-44
c0-5 4-9 9-9z"/>
</g>
</svg>