<?xml version="1.0" encoding="UTF-8" standalone="no"?>
<svg width="26px" height="26px" viewBox="0 0 26 26" version="1.1" xmlns="http://www.w3.org/2000/svg" xmlns:xlink="http://www.w3.org/1999/xlink">
    <!-- Generator: sketchtool 39.1 (31720) - http://www.bohemiancoding.com/sketch -->
    <title>3BDE49E1-64CC-4536-9A88-379DB9CA18AD</title>
    <desc>Created with sketchtool.</desc>
    <defs>
        <circle id="path-1" cx="11.5" cy="11.5" r="11.5"></circle>
        <mask id="mask-2" maskContentUnits="userSpaceOnUse" maskUnits="objectBoundingBox" x="-1" y="-1" width="25" height="25">
            <rect x="-1" y="-1" width="25" height="25" fill="white"></rect>
            <use xlink:href="#path-1" fill="black"></use>
        </mask>
        <mask id="mask-4" maskContentUnits="userSpaceOnUse" maskUnits="objectBoundingBox" x="-1" y="-1" width="25" height="25">
            <rect x="-1" y="-1" width="25" height="25" fill="white"></rect>
            <use xlink:href="#path-1" fill="black"></use>
        </mask>
    </defs>
    <g id="Assets" stroke="none" stroke-width="1" fill="none" fill-rule="evenodd">
        <g id="MVT-Assets" transform="translate(-381.000000, -339.000000)">
            <g id="Labels" transform="translate(31.000000, 22.000000)"></g>
            <g id="Flags" transform="translate(31.000000, 340.000000)">
                <g id="ca" transform="translate(351.721591, 0.710212)">
                    <mask id="mask-3" fill="white">
                        <use xlink:href="#path-1"></use>
                    </mask>
                    <g id="Mask" stroke="#DFE4E7" mask="url(#mask-2)" stroke-width="2">
                        <use mask="url(#mask-4)" xlink:href="#path-1"></use>
                    </g>
                    <g id="Clipped" mask="url(#mask-3)">
                        <g transform="translate(-3.513889, 0.000000)" id="Group">
                            <g transform="translate(0.017633, 0.000000)">
                                <polygon id="Shape" fill="#FFFFFF" points="7 0 23.2741172 0 23.2741172 23 7 23"></polygon>
                                <path d="M0,0 L8.13705859,0 L8.13705859,23 L0,23 L0,0 Z M21.8555753,0 L29.992589,0 L29.992589,23 L21.8556202,23 L21.8555753,0 Z M10.046979,11.1311328 L9.50189299,11.3174393 L12.0382653,13.5434299 C12.2300742,14.1155241 11.9716165,14.284161 11.8069321,14.5842353 L14.5604553,14.2347169 L14.4887692,17.0057548 L15.0590809,16.9893638 L14.9346958,14.241343 L17.6909314,14.5680769 C17.5203571,14.2078249 17.3685375,14.0165585 17.5263633,13.4405506 L20.0611081,11.3315828 L19.6175452,11.1710058 C19.254852,10.8911586 19.7742472,9.82315115 19.8525983,9.14914633 C19.8525983,9.14914633 18.3725699,9.658118 18.2755804,9.39179426 L17.8986663,8.66776413 L16.5522454,10.1468238 C16.4051531,10.1820856 16.3424956,10.1235742 16.30797,9.99926658 L16.930012,6.90839223 L15.9450055,7.46239056 C15.8625471,7.49765239 15.7800886,7.46723422 15.7257622,7.37113603 L14.7783425,5.47009679 L13.8014734,7.44437215 C13.7278497,7.51512832 13.6541099,7.52330441 13.5929248,7.47521657 L12.6550374,6.94907896 L13.2180643,10.0158125 C13.1732702,10.1374852 13.0660122,10.1717783 12.9398446,10.1058658 L11.6527488,8.64358459 C11.4843832,8.91335701 11.3702666,9.35409122 11.1477295,9.45286311 C10.9251537,9.54535762 10.1797727,9.26597538 9.68017839,9.15693493 C9.85083018,9.77285459 10.3844851,10.7961066 10.0467465,11.1314815 L10.046979,11.1311328 Z" id="Shape" fill="#BF0A30"></path>
                            </g>
                        </g>
                    </g>
                </g>
            </g>
            <g id="Slices" transform="translate(30.000000, 203.000000)"></g>
        </g>
    </g>
</svg>